<svg xmlns="http://www.w3.org/2000/svg" xmlns:xlink="http://www.w3.org/1999/xlink" width="300.38" height="319.95" viewBox="0 0 300.38 319.95"><defs><clipPath id="clip-path"><rect id="Rectangle_2" data-name="Rectangle 2" width="300" height="300" transform="translate(25.5 26.21)" fill="none"/></clipPath></defs><g id="Pattern_looseChveron" transform="translate(-25.12 -26.21)"><rect id="Rectangle_1" data-name="Rectangle 1" width="300" height="300" transform="translate(25.12 46.16)" fill="none"/><g id="Group_1" data-name="Group 1" clip-path="url(#clip-path)"><path id="Path_1" data-name="Path 1" d="M.5,51.21v-25l25-25,25,25v25l-25-25Z" fill="none" stroke="rgba(230,141,104,0.05)" stroke-miterlimit="10" stroke-width="1"/><path id="Path_2" data-name="Path 2" d="M.5,101.21v-25l25-25,25,25v25l-25-25Z" fill="none" stroke="rgba(230,141,104,0.05)" stroke-miterlimit="10" stroke-width="1"/><path id="Path_3" data-name="Path 3" d="M.5,151.21v-25l25-25,25,25v25l-25-25Z" fill="none" stroke="rgba(230,141,104,0.05)" stroke-miterlimit="10" stroke-width="1"/><path id="Path_4" data-name="Path 4" d="M.5,251.21v-25l25-25,25,25v25l-25-25Z" fill="none" stroke="rgba(230,141,104,0.05)" stroke-miterlimit="10" stroke-width="1"/><path id="Path_5" data-name="Path 5" d="M.5,201.21v-25l25-25,25,25v25l-25-25Z" fill="none" stroke="rgba(230,141,104,0.05)" stroke-miterlimit="10" stroke-width="1"/><path id="Path_6" data-name="Path 6" d="M.5,301.21v-25l25-25,25,25v25l-25-25Z" fill="none" stroke="rgba(230,141,104,0.05)" stroke-miterlimit="10" stroke-width="1"/><path id="Path_7" data-name="Path 7" d="M.5,351.21v-25l25-25,25,25v25l-25-25Z" fill="none" stroke="rgba(230,141,104,0.05)" stroke-miterlimit="10" stroke-width="1"/><path id="Path_8" data-name="Path 8" d="M.5,401.21v-25l25-25,25,25v25l-25-25Z" fill="none" stroke="rgba(230,141,104,0.05)" stroke-miterlimit="10" stroke-width="1"/><path id="Path_9" data-name="Path 9" d="M100.5,51.21v-25l25-25,25,25v25l-25-25Z" fill="none" stroke="rgba(230,141,104,0.05)" stroke-miterlimit="10" stroke-width="1"/><path id="Path_10" data-name="Path 10" d="M100.5,101.21v-25l25-25,25,25v25l-25-25Z" fill="none" stroke="rgba(230,141,104,0.05)" stroke-miterlimit="10" stroke-width="1"/><path id="Path_11" data-name="Path 11" d="M100.5,151.21v-25l25-25,25,25v25l-25-25Z" fill="none" stroke="rgba(230,141,104,0.05)" stroke-miterlimit="10" stroke-width="1"/><path id="Path_12" data-name="Path 12" d="M100.5,251.21v-25l25-25,25,25v25l-25-25Z" fill="none" stroke="rgba(230,141,104,0.05)" stroke-miterlimit="10" stroke-width="1"/><path id="Path_13" data-name="Path 13" d="M100.5,201.21v-25l25-25,25,25v25l-25-25Z" fill="none" stroke="rgba(230,141,104,0.05)" stroke-miterlimit="10" stroke-width="1"/><path id="Path_14" data-name="Path 14" d="M100.5,301.21v-25l25-25,25,25v25l-25-25Z" fill="none" stroke="rgba(230,141,104,0.05)" stroke-miterlimit="10" stroke-width="1"/><path id="Path_15" data-name="Path 15" d="M100.5,351.21v-25l25-25,25,25v25l-25-25Z" fill="none" stroke="rgba(230,141,104,0.05)" stroke-miterlimit="10" stroke-width="1"/><path id="Path_16" data-name="Path 16" d="M100.5,401.21v-25l25-25,25,25v25l-25-25Z" fill="none" stroke="rgba(230,141,104,0.05)" stroke-miterlimit="10" stroke-width="1"/><path id="Path_17" data-name="Path 17" d="M200.5,51.21v-25l25-25,25,25v25l-25-25Z" fill="none" stroke="rgba(230,141,104,0.05)" stroke-miterlimit="10" stroke-width="1"/><path id="Path_18" data-name="Path 18" d="M200.5,101.21v-25l25-25,25,25v25l-25-25Z" fill="none" stroke="rgba(230,141,104,0.05)" stroke-miterlimit="10" stroke-width="1"/><path id="Path_19" data-name="Path 19" d="M200.5,151.21v-25l25-25,25,25v25l-25-25Z" fill="none" stroke="rgba(230,141,104,0.05)" stroke-miterlimit="10" stroke-width="1"/><path id="Path_20" data-name="Path 20" d="M200.5,251.21v-25l25-25,25,25v25l-25-25Z" fill="none" stroke="rgba(230,141,104,0.05)" stroke-miterlimit="10" stroke-width="1"/><path id="Path_21" data-name="Path 21" d="M200.5,201.21v-25l25-25,25,25v25l-25-25Z" fill="none" stroke="rgba(230,141,104,0.05)" stroke-miterlimit="10" stroke-width="1"/><path id="Path_22" data-name="Path 22" d="M200.5,301.21v-25l25-25,25,25v25l-25-25Z" fill="none" stroke="rgba(230,141,104,0.05)" stroke-miterlimit="10" stroke-width="1"/><path id="Path_23" data-name="Path 23" d="M200.5,351.21v-25l25-25,25,25v25l-25-25Z" fill="none" stroke="rgba(230,141,104,0.05)" stroke-miterlimit="10" stroke-width="1"/><path id="Path_24" data-name="Path 24" d="M200.5,401.21v-25l25-25,25,25v25l-25-25Z" fill="none" stroke="rgba(230,141,104,0.05)" stroke-miterlimit="10" stroke-width="1"/><path id="Path_25" data-name="Path 25" d="M300.5,51.21v-25l25-25,25,25v25l-25-25Z" fill="none" stroke="rgba(230,141,104,0.05)" stroke-miterlimit="10" stroke-width="1"/><path id="Path_26" data-name="Path 26" d="M300.5,101.21v-25l25-25,25,25v25l-25-25Z" fill="none" stroke="rgba(230,141,104,0.05)" stroke-miterlimit="10" stroke-width="1"/><path id="Path_27" data-name="Path 27" d="M300.5,151.21v-25l25-25,25,25v25l-25-25Z" fill="none" stroke="rgba(230,141,104,0.05)" stroke-miterlimit="10" stroke-width="1"/><path id="Path_28" data-name="Path 28" d="M300.5,251.21v-25l25-25,25,25v25l-25-25Z" fill="none" stroke="rgba(230,141,104,0.05)" stroke-miterlimit="10" stroke-width="1"/><path id="Path_29" data-name="Path 29" d="M300.5,201.21v-25l25-25,25,25v25l-25-25Z" fill="none" stroke="rgba(230,141,104,0.05)" stroke-miterlimit="10" stroke-width="1"/><path id="Path_30" data-name="Path 30" d="M300.5,301.21v-25l25-25,25,25v25l-25-25Z" fill="none" stroke="rgba(230,141,104,0.05)" stroke-miterlimit="10" stroke-width="1"/><path id="Path_31" data-name="Path 31" d="M300.5,351.21v-25l25-25,25,25v25l-25-25Z" fill="none" stroke="rgba(230,141,104,0.05)" stroke-miterlimit="10" stroke-width="1"/><path id="Path_32" data-name="Path 32" d="M300.5,401.21v-25l25-25,25,25v25l-25-25Z" fill="none" stroke="rgba(230,141,104,0.05)" stroke-miterlimit="10" stroke-width="1"/><path id="Path_33" data-name="Path 33" d="M100.5,1.21v25l-25,25-25-25v-25l25,25Z" fill="none" stroke="rgba(230,141,104,0.05)" stroke-miterlimit="10" stroke-width="1"/><path id="Path_34" data-name="Path 34" d="M100.5,51.21v25l-25,25-25-25v-25l25,25Z" fill="none" stroke="rgba(230,141,104,0.05)" stroke-miterlimit="10" stroke-width="1"/><path id="Path_35" data-name="Path 35" d="M100.5,101.21v25l-25,25-25-25v-25l25,25,25-25Z" fill="none" stroke="rgba(230,141,104,0.05)" stroke-miterlimit="10" stroke-width="1"/><path id="Path_36" data-name="Path 36" d="M100.5,201.21v25l-25,25-25-25v-25l25,25Z" fill="none" stroke="rgba(230,141,104,0.05)" stroke-miterlimit="10" stroke-width="1"/><path id="Path_37" data-name="Path 37" d="M100.5,151.21v25l-25,25-25-25v-25l25,25Z" fill="none" stroke="rgba(230,141,104,0.05)" stroke-miterlimit="10" stroke-width="1"/><path id="Path_38" data-name="Path 38" d="M100.5,251.21v25l-25,25-25-25v-25l25,25,25-25Z" fill="none" stroke="rgba(230,141,104,0.05)" stroke-miterlimit="10" stroke-width="1"/><path id="Path_39" data-name="Path 39" d="M100.5,301.21v25l-25,25-25-25v-25l25,25Z" fill="none" stroke="rgba(230,141,104,0.05)" stroke-miterlimit="10" stroke-width="1"/><path id="Path_40" data-name="Path 40" d="M100.5,351.21v25l-25,25-25-25v-25l25,25Z" fill="none" stroke="rgba(230,141,104,0.05)" stroke-miterlimit="10" stroke-width="1"/><path id="Path_41" data-name="Path 41" d="M200.5,1.21v25l-25,25-25-25v-25l25,25Z" fill="none" stroke="rgba(230,141,104,0.05)" stroke-miterlimit="10" stroke-width="1"/><path id="Path_42" data-name="Path 42" d="M200.5,51.21v25l-25,25-25-25v-25l25,25Z" fill="none" stroke="rgba(230,141,104,0.05)" stroke-miterlimit="10" stroke-width="1"/><path id="Path_43" data-name="Path 43" d="M200.5,101.21v25l-25,25-25-25v-25l25,25,25-25Z" fill="none" stroke="rgba(230,141,104,0.05)" stroke-miterlimit="10" stroke-width="1"/><path id="Path_44" data-name="Path 44" d="M200.5,201.21v25l-25,25-25-25v-25l25,25Z" fill="none" stroke="rgba(230,141,104,0.05)" stroke-miterlimit="10" stroke-width="1"/><path id="Path_45" data-name="Path 45" d="M200.5,151.21v25l-25,25-25-25v-25l25,25Z" fill="none" stroke="rgba(230,141,104,0.05)" stroke-miterlimit="10" stroke-width="1"/><path id="Path_46" data-name="Path 46" d="M200.5,251.21v25l-25,25-25-25v-25l25,25,25-25Z" fill="none" stroke="rgba(230,141,104,0.05)" stroke-miterlimit="10" stroke-width="1"/><path id="Path_47" data-name="Path 47" d="M200.5,301.21v25l-25,25-25-25v-25l25,25Z" fill="none" stroke="rgba(230,141,104,0.05)" stroke-miterlimit="10" stroke-width="1"/><path id="Path_48" data-name="Path 48" d="M200.5,351.21v25l-25,25-25-25v-25l25,25Z" fill="none" stroke="rgba(230,141,104,0.05)" stroke-miterlimit="10" stroke-width="1"/><path id="Path_49" data-name="Path 49" d="M300.5,1.21v25l-25,25-25-25v-25l25,25,25-25Z" fill="none" stroke="rgba(230,141,104,0.05)" stroke-miterlimit="10" stroke-width="1"/><path id="Path_50" data-name="Path 50" d="M300.5,51.21v25l-25,25-25-25v-25l25,25Z" fill="none" stroke="rgba(230,141,104,0.05)" stroke-miterlimit="10" stroke-width="1"/><path id="Path_51" data-name="Path 51" d="M300.5,101.21v25l-25,25-25-25v-25l25,25,25-25Z" fill="none" stroke="rgba(230,141,104,0.05)" stroke-miterlimit="10" stroke-width="1"/><path id="Path_52" data-name="Path 52" d="M300.5,201.21v25l-25,25-25-25v-25l25,25Z" fill="none" stroke="rgba(230,141,104,0.05)" stroke-miterlimit="10" stroke-width="1"/><path id="Path_53" data-name="Path 53" d="M300.5,151.21v25l-25,25-25-25v-25l25,25Z" fill="none" stroke="rgba(230,141,104,0.05)" stroke-miterlimit="10" stroke-width="1"/><path id="Path_54" data-name="Path 54" d="M300.5,251.21v25l-25,25-25-25v-25l25,25,25-25Z" fill="none" stroke="rgba(230,141,104,0.05)" stroke-miterlimit="10" stroke-width="1"/><path id="Path_55" data-name="Path 55" d="M300.5,301.21v25l-25,25-25-25v-25l25,25Z" fill="none" stroke="rgba(230,141,104,0.05)" stroke-miterlimit="10" stroke-width="1"/><path id="Path_56" data-name="Path 56" d="M300.5,351.21v25l-25,25-25-25v-25l25,25Z" fill="none" stroke="rgba(230,141,104,0.05)" stroke-miterlimit="10" stroke-width="1"/></g></g></svg>