<svg width="16" height="16" viewBox="0 0 16 16" fill="none" xmlns="http://www.w3.org/2000/svg">
<path d="M13.1667 10.6674C13.1667 10.9408 12.94 11.1674 12.6667 11.1674H4.54004L5.35337 11.9808C5.54671 12.1741 5.54671 12.4941 5.35337 12.6874C5.25337 12.7874 5.12671 12.8341 5.00004 12.8341C4.87337 12.8341 4.74671 12.7874 4.64671 12.6874L2.98004 11.0208C2.93337 10.9741 2.90004 10.9208 2.87337 10.8608C2.82004 10.7408 2.82004 10.6008 2.87337 10.4808C2.90004 10.4208 2.93337 10.3674 2.98004 10.3208L4.64671 8.65411C4.84004 8.46078 5.16004 8.46078 5.35337 8.65411C5.54671 8.84745 5.54671 9.16745 5.35337 9.36078L4.54004 10.1741H12.6667C12.94 10.1741 13.1667 10.4008 13.1667 10.6741V10.6674ZM3.33337 5.83411H11.46L10.6467 6.64745C10.4534 6.84078 10.4534 7.16078 10.6467 7.35411C10.7467 7.45411 10.8734 7.50078 11 7.50078C11.1267 7.50078 11.2534 7.45411 11.3534 7.35411L13.02 5.68745C13.0667 5.64078 13.1 5.58745 13.1267 5.52745C13.18 5.40745 13.18 5.26745 13.1267 5.14745C13.1 5.08745 13.0667 5.03411 13.02 4.98745L11.3534 3.32078C11.16 3.12745 10.84 3.12745 10.6467 3.32078C10.4534 3.51411 10.4534 3.83411 10.6467 4.02745L11.46 4.84078H3.33337C3.06004 4.84078 2.83337 5.06745 2.83337 5.34078C2.83337 5.61411 3.06004 5.84078 3.33337 5.84078V5.83411Z" fill="black"/>
</svg>
